<?xml version="1.0" encoding="UTF-8"?>
<svg id="Camada_1" data-name="Camada 1" xmlns="http://www.w3.org/2000/svg" viewBox="0 0 391.22 118.21">
  <defs>
    <style>
      .cls-1 {
        fill: #271f5e;
      }

      .cls-2 {
        fill: #dddc00;
        fill-rule: evenodd;
      }
    </style>
  </defs>
  <path class="cls-2" d="M308.23,85.61c10.17-1.71,19.11-7.07,25.42-14.69l11.13-11.13,3.14-3.14,15.67-15.67,23.92-23.92c-3.34-3.34-7.86-5.21-12.58-5.21s-9.25,1.87-12.58,5.21l-11.25,11.25-15.75,15.75-4.82,4.82-13.9,13.9c-4.19,3.46-9.56,5.54-15.41,5.54-13.36,0-24.22-10.85-24.22-24.22,0-5.75,2.01-11.04,5.37-15.2l-.12.02s-14.79,17.71-.99,39.5c5.02,7.93,16.44,16.3,32.18,15.96-1.69.51-3.43.92-5.21,1.22"/>
  <g>
    <g>
      <path class="cls-1" d="M71.45,118.08c-1.18,0-2.27-.22-3.3-.66-1.02-.44-1.91-1.06-2.68-1.85-.76-.79-1.36-1.72-1.78-2.77-.43-1.06-.64-2.2-.64-3.44s.21-2.35.64-3.4c.43-1.05,1.02-1.97,1.78-2.76.76-.79,1.65-1.41,2.67-1.86,1.02-.45,2.12-.67,3.31-.67,1.12,0,2.08.15,2.88.44.8.29,1.61.77,2.43,1.44.12.09.21.18.27.27.07.09.11.19.13.28.02.09.03.21.03.34,0,.28-.1.5-.29.69-.2.18-.43.28-.71.3-.28.02-.54-.07-.81-.27-.54-.46-1.09-.82-1.66-1.07-.57-.25-1.33-.37-2.27-.37-.86,0-1.66.17-2.42.52-.75.35-1.42.83-1.99,1.44-.57.61-1.02,1.32-1.34,2.12-.32.81-.48,1.66-.48,2.58s.16,1.79.48,2.6c.32.81.77,1.51,1.34,2.12.57.61,1.24,1.08,1.99,1.43.75.34,1.56.51,2.42.51.74,0,1.44-.13,2.1-.38.66-.25,1.29-.61,1.9-1.05.26-.19.52-.27.77-.25.25.02.47.12.64.3.17.18.26.43.26.75,0,.14-.03.29-.09.42-.06.14-.15.26-.26.38-.78.62-1.62,1.1-2.51,1.41-.89.32-1.83.48-2.82.48"/>
      <path class="cls-1" d="M84.18,109.23h2.79c.67,0,1.25-.13,1.76-.38.51-.25.91-.61,1.2-1.07.29-.46.44-.98.44-1.56,0-.64-.14-1.2-.44-1.7-.29-.49-.69-.88-1.2-1.15-.51-.28-1.1-.41-1.76-.41h-2.79v6.27ZM92.08,117.87c-.2,0-.39-.04-.55-.13-.17-.09-.31-.22-.42-.41l-3.92-6.31,2.2-.63,3.57,5.74c.26.42.3.82.11,1.19-.19.37-.51.55-.98.55ZM83.05,117.87c-.32,0-.59-.11-.81-.33-.22-.22-.33-.49-.33-.81v-14.73c0-.33.11-.61.33-.82.22-.21.49-.32.81-.32h3.92c1.09,0,2.05.23,2.89.69.84.46,1.5,1.08,1.97,1.88.47.8.71,1.73.71,2.79,0,.99-.24,1.86-.71,2.63-.47.77-1.13,1.37-1.97,1.81-.84.44-1.81.65-2.89.65h-2.79v5.42c0,.32-.11.59-.32.81-.21.22-.48.33-.82.33Z"/>
      <path class="cls-1" d="M103.22,99c-.3,0-.56-.11-.77-.32-.21-.21-.32-.47-.32-.77s.09-.57.26-.76l2.13-2.13c.22-.22.48-.33.78-.33.33,0,.6.11.8.33.2.22.3.49.3.81,0,.13-.02.26-.07.4-.04.14-.12.26-.24.36l-2.11,2.11c-.2.2-.46.3-.78.3M97.98,117.87c-.32,0-.59-.11-.81-.33-.22-.22-.33-.49-.33-.81v-14.73c0-.33.11-.61.33-.82.22-.21.49-.32.81-.32h9.83c.33,0,.6.1.81.29.2.2.3.45.3.77s-.1.55-.3.74c-.2.19-.47.28-.81.28h-8.7v5.29h6.24c.33,0,.6.1.81.29.2.2.3.45.3.75s-.1.55-.3.75c-.2.2-.47.29-.81.29h-6.24v5.44h8.7c.33,0,.6.09.81.28.2.19.3.44.3.74s-.1.58-.3.77c-.2.2-.47.29-.81.29h-9.83Z"/>
      <path class="cls-1" d="M115.51,115.86h2.81c1.22,0,2.3-.28,3.23-.84.94-.56,1.67-1.33,2.21-2.31.54-.98.8-2.1.8-3.36s-.27-2.4-.8-3.37c-.54-.97-1.27-1.73-2.21-2.28-.94-.55-2.01-.83-3.23-.83h-2.81v12.99ZM114.38,117.87c-.32,0-.59-.11-.8-.33-.22-.22-.33-.49-.33-.81v-14.73c0-.33.11-.61.33-.82.22-.21.49-.32.8-.32h3.94c1.25,0,2.38.21,3.41.62,1.02.41,1.91,1,2.67,1.76.75.76,1.33,1.66,1.74,2.69.41,1.03.61,2.17.61,3.42s-.2,2.39-.61,3.43c-.41,1.04-.99,1.94-1.74,2.7-.75.76-1.64,1.35-2.67,1.76-1.02.41-2.16.62-3.41.62h-3.94Z"/>
      <path class="cls-1" d="M132.59,117.87c-.32,0-.59-.11-.81-.33-.22-.22-.33-.49-.33-.81v-14.73c0-.33.11-.61.33-.82.22-.21.49-.32.81-.32s.61.11.82.32c.21.21.32.48.32.82v14.73c0,.32-.11.59-.32.81-.21.22-.48.33-.82.33"/>
      <path class="cls-1" d="M138.45,102.96c-.32,0-.57-.1-.76-.3-.19-.2-.28-.45-.28-.74,0-.32.09-.57.28-.76.19-.19.44-.28.76-.28h11.64c.32,0,.57.09.76.28.19.19.28.44.28.76,0,.29-.09.54-.28.74-.19.2-.44.3-.76.3h-11.64ZM144.25,117.87c-.3,0-.57-.11-.78-.33s-.33-.49-.33-.81v-15.86h2.26v15.86c0,.32-.11.59-.33.81-.22.22-.49.33-.83.33Z"/>
      <path class="cls-1" d="M161.57,116.04c.94,0,1.81-.17,2.6-.51.79-.34,1.48-.81,2.06-1.41.58-.6,1.03-1.31,1.34-2.12.31-.81.47-1.69.47-2.63s-.16-1.82-.47-2.63c-.31-.81-.76-1.52-1.34-2.12-.58-.6-1.27-1.07-2.06-1.4-.79-.33-1.66-.5-2.6-.5s-1.81.17-2.6.5c-.79.33-1.47.8-2.05,1.4-.57.6-1.02,1.31-1.34,2.12-.32.81-.48,1.69-.48,2.63s.16,1.82.48,2.63c.32.81.77,1.52,1.34,2.12.57.6,1.25,1.07,2.05,1.41.79.34,1.66.51,2.6.51M161.57,118.08c-1.28,0-2.44-.21-3.5-.64-1.06-.43-1.97-1.03-2.73-1.81-.76-.78-1.35-1.7-1.77-2.76-.42-1.07-.63-2.24-.63-3.51s.21-2.44.63-3.5c.42-1.06,1.01-1.98,1.77-2.75.76-.78,1.67-1.38,2.73-1.81,1.06-.43,2.23-.64,3.5-.64s2.44.21,3.49.64c1.05.43,1.96,1.03,2.73,1.81.77.78,1.36,1.69,1.78,2.75.42,1.06.63,2.23.63,3.5s-.21,2.45-.63,3.51c-.42,1.07-1.02,1.99-1.78,2.76-.77.78-1.68,1.38-2.73,1.81-1.05.43-2.22.64-3.49.64Z"/>
      <path class="cls-1" d="M186.22,117.87c-.32,0-.59-.11-.81-.33-.22-.22-.33-.49-.33-.81v-14.73c0-.33.11-.61.33-.82.22-.21.49-.32.81-.32h9.83c.33,0,.6.1.8.29.2.2.3.45.3.77s-.1.55-.3.74c-.2.19-.47.28-.8.28h-8.7v5.29h6.24c.33,0,.6.1.81.29.2.2.3.45.3.75s-.1.55-.3.75c-.2.2-.47.29-.81.29h-6.24v5.44h8.7c.33,0,.6.09.8.28.2.19.3.44.3.74s-.1.58-.3.77c-.2.2-.47.29-.8.29h-9.83Z"/>
      <path class="cls-1" d="M215.72,118.08c-.93,0-1.81-.15-2.65-.44-.84-.29-1.57-.7-2.2-1.22-.62-.52-1.08-1.12-1.37-1.81-.15-.3-.14-.59.01-.85.15-.26.41-.43.77-.5.26-.06.52-.02.77.12.25.14.45.34.58.62.17.36.46.7.86,1,.4.3.88.55,1.45.74.57.19,1.16.28,1.78.28.7,0,1.34-.11,1.93-.33.59-.22,1.06-.53,1.43-.95.36-.41.54-.92.54-1.53,0-.77-.3-1.46-.9-2.07-.6-.61-1.59-.99-2.97-1.13-1.8-.17-3.21-.7-4.24-1.59-1.03-.88-1.54-1.98-1.54-3.29,0-.96.27-1.77.81-2.44.54-.67,1.27-1.17,2.19-1.52.92-.35,1.95-.52,3.08-.52.88,0,1.66.12,2.32.37.66.25,1.24.59,1.73,1.02.49.44.92.95,1.28,1.54.2.32.29.62.25.9-.04.28-.18.5-.42.66-.28.17-.57.21-.89.11-.32-.1-.56-.29-.72-.57-.23-.42-.51-.78-.85-1.07-.33-.29-.73-.52-1.17-.69-.45-.17-.98-.25-1.59-.25-1.07-.01-1.97.19-2.7.6-.73.41-1.09,1.05-1.09,1.9,0,.44.11.85.34,1.25.22.4.64.74,1.24,1.03.6.29,1.47.49,2.6.61,1.73.17,3.07.7,4.04,1.58.96.88,1.45,2.03,1.45,3.47,0,.83-.17,1.54-.51,2.15-.34.61-.8,1.12-1.37,1.53-.57.41-1.23.72-1.96.92-.73.2-1.49.3-2.27.3"/>
      <path class="cls-1" d="M227.6,117.87c-.32,0-.59-.11-.8-.33-.22-.22-.33-.49-.33-.81v-14.73c0-.33.11-.61.33-.82.22-.21.49-.32.8-.32h9.83c.33,0,.6.1.81.29.2.2.3.45.3.77s-.1.55-.3.74c-.2.19-.47.28-.81.28h-8.7v5.29h6.24c.33,0,.6.1.81.29.2.2.3.45.3.75s-.1.55-.3.75c-.2.2-.47.29-.81.29h-6.24v5.44h8.7c.33,0,.6.09.81.28.2.19.3.44.3.74s-.1.58-.3.77c-.2.2-.47.29-.81.29h-9.83Z"/>
      <path class="cls-1" d="M256.17,115.39l-2.18-.44v-3.89h-3c-.32,0-.59-.09-.8-.28-.22-.19-.33-.43-.33-.72s.11-.53.33-.72c.22-.19.49-.28.8-.28h4.07c.33,0,.6.11.8.32.2.21.3.48.3.82v5.2ZM250.49,118.08c-1.17,0-2.27-.22-3.3-.66-1.02-.44-1.91-1.06-2.68-1.85-.76-.79-1.36-1.72-1.78-2.77-.43-1.06-.64-2.2-.64-3.44s.21-2.35.64-3.4c.43-1.05,1.02-1.97,1.78-2.76.76-.79,1.65-1.41,2.67-1.86,1.02-.45,2.12-.67,3.31-.67,1.12,0,2.08.15,2.88.44.81.29,1.61.77,2.43,1.44.12.09.21.18.27.27.07.09.11.19.13.28.02.09.03.21.03.34,0,.28-.1.51-.29.7-.2.19-.44.29-.72.3-.28.01-.55-.08-.79-.28-.54-.46-1.09-.82-1.66-1.07-.57-.25-1.33-.37-2.27-.37-.86,0-1.66.17-2.42.52-.75.35-1.42.83-1.99,1.44-.57.61-1.02,1.32-1.34,2.12-.32.81-.48,1.66-.48,2.58s.16,1.79.48,2.6c.32.81.76,1.51,1.34,2.12.57.61,1.24,1.08,1.99,1.43.75.34,1.56.51,2.42.51.74,0,1.44-.13,2.1-.38.66-.25,1.29-.61,1.9-1.05.26-.19.52-.27.77-.25.25.02.47.12.64.3.17.18.26.43.26.75,0,.14-.03.29-.08.42-.05.14-.14.26-.27.38-.77.64-1.6,1.11-2.5,1.42-.9.31-1.84.47-2.83.47Z"/>
      <path class="cls-1" d="M268.07,118.21c-1.39,0-2.63-.26-3.7-.77-1.07-.51-1.91-1.23-2.51-2.13-.6-.91-.9-1.95-.9-3.14v-10.16c0-.33.11-.61.33-.82.22-.21.49-.32.8-.32s.59.11.8.32c.22.21.33.48.33.82v10.16c0,.8.21,1.49.62,2.09.41.59.99,1.06,1.72,1.4.73.34,1.57.51,2.51.51s1.7-.17,2.4-.5c.7-.33,1.26-.8,1.66-1.4.41-.6.61-1.3.61-2.1v-10.16c0-.33.11-.61.33-.82.22-.21.48-.32.78-.32.35,0,.62.11.83.32.2.21.3.48.3.82v10.16c0,1.19-.29,2.24-.88,3.14-.59.91-1.4,1.62-2.45,2.13-1.04.52-2.24.77-3.59.77"/>
      <path class="cls-1" d="M282.78,109.23h2.79c.67,0,1.25-.13,1.76-.38.51-.25.91-.61,1.2-1.07.29-.46.44-.98.44-1.56,0-.64-.14-1.2-.44-1.7-.29-.49-.69-.88-1.2-1.15-.51-.28-1.1-.41-1.76-.41h-2.79v6.27ZM290.68,117.87c-.2,0-.39-.04-.55-.13-.17-.09-.31-.22-.42-.41l-3.92-6.31,2.2-.63,3.57,5.74c.26.42.3.82.11,1.19-.19.37-.51.55-.98.55ZM281.65,117.87c-.32,0-.59-.11-.81-.33-.22-.22-.33-.49-.33-.81v-14.73c0-.33.11-.61.33-.82.22-.21.49-.32.81-.32h3.92c1.09,0,2.05.23,2.89.69.84.46,1.5,1.08,1.97,1.88.47.8.71,1.73.71,2.79,0,.99-.24,1.86-.71,2.63-.47.77-1.13,1.37-1.97,1.81-.84.44-1.81.65-2.89.65h-2.79v5.42c0,.32-.11.59-.32.81-.21.22-.48.33-.82.33Z"/>
      <path class="cls-1" d="M303.3,116.04c.94,0,1.81-.17,2.6-.51.79-.34,1.48-.81,2.06-1.41.58-.6,1.03-1.31,1.34-2.12.31-.81.47-1.69.47-2.63s-.16-1.82-.47-2.63c-.31-.81-.76-1.52-1.34-2.12-.58-.6-1.27-1.07-2.06-1.4-.79-.33-1.66-.5-2.6-.5s-1.81.17-2.6.5c-.79.33-1.47.8-2.05,1.4-.57.6-1.02,1.31-1.34,2.12-.32.81-.48,1.69-.48,2.63s.16,1.82.48,2.63c.32.81.77,1.52,1.34,2.12.57.6,1.25,1.07,2.05,1.41.79.34,1.66.51,2.6.51M303.3,118.08c-1.28,0-2.44-.21-3.5-.64-1.06-.43-1.97-1.03-2.73-1.81-.76-.78-1.35-1.7-1.77-2.76-.42-1.07-.63-2.24-.63-3.51s.21-2.44.63-3.5c.42-1.06,1.01-1.98,1.77-2.75.76-.78,1.67-1.38,2.73-1.81,1.06-.43,2.23-.64,3.5-.64s2.44.21,3.49.64c1.05.43,1.96,1.03,2.73,1.81.77.78,1.36,1.69,1.78,2.75.42,1.06.63,2.23.63,3.5s-.21,2.45-.63,3.51c-.42,1.07-1.02,1.99-1.78,2.76-.77.78-1.68,1.38-2.73,1.81-1.05.43-2.22.64-3.49.64Z"/>
      <path class="cls-1" d="M322.05,118.08c-.93,0-1.81-.15-2.65-.44-.84-.29-1.57-.7-2.2-1.22-.62-.52-1.08-1.12-1.37-1.81-.15-.3-.14-.59.01-.85.15-.26.41-.43.77-.5.26-.06.52-.02.77.12.25.14.45.34.58.62.17.36.46.7.86,1,.4.3.88.55,1.45.74.57.19,1.16.28,1.78.28.7,0,1.34-.11,1.93-.33.59-.22,1.06-.53,1.43-.95.36-.41.54-.92.54-1.53,0-.77-.3-1.46-.9-2.07-.6-.61-1.59-.99-2.97-1.13-1.8-.17-3.21-.7-4.24-1.59-1.03-.88-1.54-1.98-1.54-3.29,0-.96.27-1.77.8-2.44.54-.67,1.27-1.17,2.19-1.52.92-.35,1.95-.52,3.08-.52.88,0,1.66.12,2.32.37.66.25,1.24.59,1.73,1.02.49.44.92.95,1.28,1.54.2.32.29.62.25.9-.04.28-.18.5-.42.66-.28.17-.57.21-.89.11-.32-.1-.56-.29-.72-.57-.23-.42-.51-.78-.85-1.07-.33-.29-.73-.52-1.18-.69-.45-.17-.98-.25-1.59-.25-1.07-.01-1.97.19-2.7.6-.73.41-1.09,1.05-1.09,1.9,0,.44.11.85.34,1.25.22.4.64.74,1.24,1.03.6.29,1.47.49,2.6.61,1.73.17,3.07.7,4.04,1.58.96.88,1.45,2.03,1.45,3.47,0,.83-.17,1.54-.51,2.15-.34.61-.8,1.12-1.37,1.53-.57.41-1.23.72-1.96.92-.73.2-1.49.3-2.27.3"/>
    </g>
    <path class="cls-1" d="M175.84,88.21c-2.34,0-4.28-.77-5.82-2.31-1.54-1.54-2.31-3.48-2.31-5.82v-1.7c-2.34,2.33-5.03,4.33-8.06,6.01-5.58,3.08-11.94,4.63-19.06,4.63s-13.9-1.57-19.7-4.71c-5.8-3.14-10.37-7.74-13.72-13.8-3.35-6.06-5.02-13.51-5.02-22.33V8.93c0-2.34.77-4.28,2.31-5.82,1.54-1.54,3.48-2.31,5.82-2.31s4.28.77,5.82,2.31c1.54,1.54,2.31,3.48,2.31,5.82v39.24c0,5.96,1.12,10.87,3.35,14.76,2.23,3.88,5.26,6.75,9.09,8.61s8.14,2.79,12.92,2.79,8.64-.9,12.2-2.71c3.56-1.81,6.41-4.25,8.53-7.34,2.13-3.08,3.19-6.54,3.19-10.37V8.93c0-2.45.77-4.41,2.31-5.9,1.54-1.49,3.48-2.23,5.82-2.23s4.41.74,5.9,2.23,2.23,3.46,2.23,5.9v71.15c0,2.34-.75,4.28-2.23,5.82-1.49,1.54-3.46,2.31-5.9,2.31M40.84,88.85c-7.76,0-14.7-1.91-20.82-5.74-6.11-3.83-10.98-9.09-14.6-15.79C1.81,60.62,0,53.07,0,44.67s1.94-16.08,5.82-22.73c3.88-6.65,9.15-11.91,15.79-15.79C28.26,2.26,35.73.32,44.03.32s15.87,1.94,22.41,5.82c6.54,3.88,11.75,9.17,15.63,15.87,3.88,6.7,5.82,14.25,5.82,22.65h-6.22c0,8.4-1.78,15.93-5.34,22.57-3.56,6.65-8.4,11.91-14.52,15.79-6.11,3.88-13.11,5.82-20.98,5.82ZM44.19,74.5c5.32,0,10.1-1.3,14.36-3.91,4.25-2.61,7.6-6.17,10.05-10.69,2.45-4.52,3.67-9.6,3.67-15.23s-1.22-10.87-3.67-15.39c-2.44-4.52-5.77-8.08-9.97-10.69-4.2-2.61-9.01-3.91-14.44-3.91s-10.29,1.3-14.6,3.91c-4.31,2.61-7.71,6.14-10.21,10.61-2.5,4.47-3.75,9.63-3.75,15.47s1.25,10.71,3.75,15.23c2.5,4.52,5.88,8.08,10.13,10.69,4.25,2.61,9.15,3.91,14.68,3.91ZM79.92,88.37c-2.45,0-4.44-.77-5.98-2.31-1.54-1.54-2.31-3.48-2.31-5.82v-24.41l3.03-16.91,13.24,5.74v35.57c0,2.34-.74,4.28-2.23,5.82-1.49,1.54-3.4,2.31-5.74,2.31ZM285.95,28.93l.12-.02c4.44-5.5,11.23-9.02,18.84-9.02,6.12,0,11.72,2.28,15.98,6.03l45.15,45.15c3.34,3.34,7.86,5.21,12.58,5.21s9.25-1.88,12.58-5.21l-54.33-54.33c-1.42-1.66-2.96-3.2-4.62-4.62l-.37-.37-.03.03c-7.3-6.1-16.7-9.77-26.95-9.77-23.23,0-42.09,18.86-42.09,42.09s18.86,42.09,42.09,42.09c4.25,0,8.35-.63,12.22-1.81-15.74.33-27.16-8.03-32.18-15.96-13.8-21.79.99-39.5.99-39.5ZM207.8,88.21c-2.55,0-4.52-.66-5.9-1.99-1.38-1.33-2.07-3.32-2.07-5.98V8.93c0-2.55.69-4.52,2.07-5.9,1.38-1.38,3.35-2.07,5.9-2.07s4.65.67,5.98,1.99c1.33,1.33,1.99,3.32,1.99,5.98v2.95c2.59-2.94,5.67-5.42,9.25-7.42,5.32-2.98,11.17-4.47,17.55-4.47s11.14,1.04,14.28,3.11c3.14,2.07,4.33,4.55,3.59,7.42-.32,1.49-.93,2.63-1.83,3.43-.9.8-1.94,1.3-3.11,1.52-1.17.21-2.45.16-3.83-.16-6.81-1.38-12.92-1.49-18.35-.32-5.42,1.17-9.7,3.35-12.84,6.54-3.14,3.19-4.71,7.23-4.71,12.12v46.58c0,2.55-.66,4.52-1.99,5.9-1.33,1.38-3.32,2.07-5.98,2.07Z"/>
  </g>
</svg>