<?xml version="1.0" encoding="UTF-8"?>
<svg id="Camada_1" data-name="Camada 1" xmlns="http://www.w3.org/2000/svg" xmlns:xlink="http://www.w3.org/1999/xlink" viewBox="0 0 500 500">
  <defs>
    <style>
      .cls-1 {
        clip-path: url(#clippath-6);
      }

      .cls-2 {
        clip-path: url(#clippath-7);
      }

      .cls-3 {
        fill: #e9edf0;
      }

      .cls-4 {
        fill: #2b2a38;
      }

      .cls-5, .cls-6, .cls-7 {
        fill: none;
      }

      .cls-8 {
        clip-path: url(#clippath-1);
      }

      .cls-9 {
        fill: #c1c4c6;
      }

      .cls-10 {
        fill: #221c62;
      }

      .cls-11 {
        clip-path: url(#clippath-8);
      }

      .cls-12 {
        fill: #646277;
      }

      .cls-13 {
        clip-path: url(#clippath-3);
      }

      .cls-14 {
        clip-path: url(#clippath-12);
      }

      .cls-15 {
        fill: #d5de23;
      }

      .cls-16 {
        fill: #d6d7d8;
      }

      .cls-17 {
        fill: #4d4963;
      }

      .cls-6 {
        stroke: #2b2a38;
        stroke-linejoin: round;
        stroke-width: 9px;
      }

      .cls-6, .cls-7 {
        stroke-linecap: round;
      }

      .cls-7 {
        isolation: isolate;
        opacity: .65;
        stroke: #e9edf0;
        stroke-miterlimit: 10;
        stroke-width: 3px;
      }

      .cls-18 {
        fill: #2f2d7a;
      }

      .cls-19 {
        fill: #d4dadd;
      }

      .cls-20 {
        clip-path: url(#clippath);
      }
    </style>
    <clipPath id="clippath">
      <rect class="cls-5" width="500" height="500"/>
    </clipPath>
    <clipPath id="clippath-1">
      <rect class="cls-5" width="500" height="500"/>
    </clipPath>
    <clipPath id="clippath-3">
      <rect class="cls-5" width="500" height="500"/>
    </clipPath>
    <clipPath id="clippath-6">
      <rect class="cls-5" width="500" height="500"/>
    </clipPath>
    <clipPath id="clippath-7">
      <rect class="cls-5" width="500" height="500"/>
    </clipPath>
    <clipPath id="clippath-8">
      <rect class="cls-5" width="500" height="500"/>
    </clipPath>
    <clipPath id="clippath-12">
      <rect class="cls-5" width="500" height="500"/>
    </clipPath>
  </defs>
  <g id="OBJECTS">
    <g>
      <g class="cls-20">
        <g>
          <path class="cls-15" d="M236.68,404.33c0-1.47,1.19-2.67,2.66-2.67s2.66,1.19,2.66,2.67-1.19,2.67-2.66,2.67-2.66-1.19-2.66-2.67Z"/>
          <path class="cls-15" d="M222.91,404.33c0-1.47,1.19-2.67,2.66-2.67s2.66,1.19,2.66,2.67-1.19,2.67-2.66,2.67-2.66-1.19-2.66-2.67Z"/>
          <path class="cls-15" d="M209.14,404.33c0-1.47,1.19-2.67,2.66-2.67s2.66,1.19,2.66,2.67-1.19,2.67-2.66,2.67-2.66-1.19-2.66-2.67Z"/>
          <path class="cls-15" d="M195.38,404.33c0-1.47,1.19-2.67,2.66-2.67s2.66,1.19,2.66,2.67-1.19,2.67-2.66,2.67-2.66-1.19-2.66-2.67Z"/>
          <path class="cls-15" d="M181.61,404.33c0-1.47,1.19-2.67,2.66-2.67s2.66,1.19,2.66,2.67-1.19,2.67-2.66,2.67-2.66-1.19-2.66-2.67Z"/>
          <path class="cls-15" d="M167.84,404.33c0-1.47,1.19-2.67,2.66-2.67s2.66,1.19,2.66,2.67-1.19,2.67-2.66,2.67-2.66-1.19-2.66-2.67Z"/>
          <path class="cls-15" d="M154.07,404.33c0-1.47,1.19-2.67,2.66-2.67s2.66,1.19,2.66,2.67-1.19,2.67-2.66,2.67-2.66-1.19-2.66-2.67Z"/>
          <path class="cls-15" d="M140.31,404.33c0-1.47,1.19-2.67,2.66-2.67s2.66,1.19,2.66,2.67-1.19,2.67-2.66,2.67-2.66-1.19-2.66-2.67Z"/>
          <path class="cls-15" d="M126.54,404.33c0-1.47,1.19-2.67,2.66-2.67s2.66,1.19,2.66,2.67-1.19,2.67-2.66,2.67-2.66-1.19-2.66-2.67Z"/>
          <path class="cls-15" d="M236.68,392.03c0-1.47,1.19-2.67,2.66-2.67s2.66,1.19,2.66,2.67-1.19,2.67-2.66,2.67-2.66-1.19-2.66-2.67Z"/>
          <path class="cls-15" d="M222.91,392.03c0-1.47,1.19-2.67,2.66-2.67s2.66,1.19,2.66,2.67-1.19,2.67-2.66,2.67-2.66-1.19-2.66-2.67Z"/>
          <path class="cls-15" d="M209.14,392.03c0-1.47,1.19-2.67,2.66-2.67s2.66,1.19,2.66,2.67-1.19,2.67-2.66,2.67-2.66-1.19-2.66-2.67Z"/>
          <path class="cls-15" d="M195.38,392.03c0-1.47,1.19-2.67,2.66-2.67s2.66,1.19,2.66,2.67-1.19,2.67-2.66,2.67-2.66-1.19-2.66-2.67Z"/>
          <path class="cls-15" d="M181.61,392.03c0-1.47,1.19-2.67,2.66-2.67s2.66,1.19,2.66,2.67-1.19,2.67-2.66,2.67-2.66-1.19-2.66-2.67Z"/>
          <path class="cls-15" d="M167.84,392.03c0-1.47,1.19-2.67,2.66-2.67s2.66,1.19,2.66,2.67-1.19,2.67-2.66,2.67-2.66-1.19-2.66-2.67Z"/>
          <path class="cls-15" d="M154.07,392.03c0-1.47,1.19-2.67,2.66-2.67s2.66,1.19,2.66,2.67-1.19,2.67-2.66,2.67-2.66-1.19-2.66-2.67Z"/>
          <path class="cls-15" d="M140.31,392.03c0-1.47,1.19-2.67,2.66-2.67s2.66,1.19,2.66,2.67-1.19,2.67-2.66,2.67-2.66-1.19-2.66-2.67Z"/>
          <path class="cls-15" d="M126.54,392.03c0-1.47,1.19-2.67,2.66-2.67s2.66,1.19,2.66,2.67-1.19,2.67-2.66,2.67-2.66-1.19-2.66-2.67Z"/>
          <circle class="cls-15" cx="239.34" cy="379.73" r="2.67"/>
          <circle class="cls-15" cx="225.58" cy="379.73" r="2.67"/>
          <circle class="cls-15" cx="211.81" cy="379.73" r="2.67"/>
          <path class="cls-15" d="M195.38,379.73c0-1.47,1.19-2.67,2.66-2.67s2.66,1.19,2.66,2.67-1.19,2.67-2.66,2.67c-1.47,0-2.66-1.19-2.66-2.67Z"/>
          <path class="cls-15" d="M181.61,379.73c0-1.47,1.19-2.67,2.66-2.67s2.66,1.19,2.66,2.67-1.19,2.67-2.66,2.67c-1.47,0-2.66-1.19-2.66-2.67Z"/>
          <path class="cls-15" d="M167.84,379.73c0-1.47,1.19-2.67,2.66-2.67s2.66,1.19,2.66,2.67-1.19,2.67-2.66,2.67c-1.47,0-2.66-1.19-2.66-2.67Z"/>
          <circle class="cls-15" cx="156.74" cy="379.73" r="2.67"/>
          <circle class="cls-15" cx="142.97" cy="379.73" r="2.67"/>
          <circle class="cls-15" cx="129.2" cy="379.73" r="2.67" transform="translate(-258.73 481.69) rotate(-85.93)"/>
          <circle class="cls-15" cx="239.34" cy="367.42" r="2.67"/>
          <circle class="cls-15" cx="225.58" cy="367.42" r="2.67"/>
          <circle class="cls-15" cx="211.81" cy="367.42" r="2.67"/>
          <path class="cls-15" d="M195.38,367.42c0-1.47,1.19-2.67,2.66-2.67s2.66,1.19,2.66,2.67-1.19,2.67-2.66,2.67-2.66-1.19-2.66-2.67Z"/>
          <path class="cls-15" d="M181.61,367.42c0-1.47,1.19-2.67,2.66-2.67s2.66,1.19,2.66,2.67-1.19,2.67-2.66,2.67-2.66-1.19-2.66-2.67Z"/>
          <path class="cls-15" d="M167.84,367.42c0-1.47,1.19-2.67,2.66-2.67s2.66,1.19,2.66,2.67-1.19,2.67-2.66,2.67-2.66-1.19-2.66-2.67Z"/>
          <circle class="cls-15" cx="156.74" cy="367.42" r="2.67"/>
          <circle class="cls-15" cx="142.97" cy="367.42" r="2.67"/>
          <circle class="cls-15" cx="129.2" cy="367.42" r="2.67" transform="translate(-246.45 470.25) rotate(-85.93)"/>
          <circle class="cls-15" cx="239.34" cy="355.12" r="2.67"/>
          <circle class="cls-15" cx="225.58" cy="355.12" r="2.67"/>
          <circle class="cls-15" cx="211.81" cy="355.12" r="2.67"/>
          <path class="cls-15" d="M195.38,355.12c0-1.47,1.19-2.67,2.66-2.67s2.66,1.19,2.66,2.67-1.19,2.67-2.66,2.67c-1.47,0-2.66-1.19-2.66-2.67Z"/>
          <path class="cls-15" d="M181.61,355.12c0-1.47,1.19-2.67,2.66-2.67s2.66,1.19,2.66,2.67-1.19,2.67-2.66,2.67c-1.47,0-2.66-1.19-2.66-2.67Z"/>
          <path class="cls-15" d="M167.84,355.12c0-1.47,1.19-2.67,2.66-2.67s2.66,1.19,2.66,2.67-1.19,2.67-2.66,2.67c-1.47,0-2.66-1.19-2.66-2.67Z"/>
          <circle class="cls-15" cx="156.74" cy="355.12" r="2.67"/>
          <circle class="cls-15" cx="142.97" cy="355.12" r="2.67"/>
          <circle class="cls-15" cx="129.2" cy="355.12" r="2.67" transform="translate(-234.18 458.82) rotate(-85.93)"/>
          <circle class="cls-15" cx="239.34" cy="342.81" r="2.67"/>
          <circle class="cls-15" cx="225.58" cy="342.81" r="2.67"/>
          <circle class="cls-15" cx="211.81" cy="342.81" r="2.67"/>
          <path class="cls-15" d="M195.38,342.81c0-1.47,1.19-2.67,2.66-2.67s2.66,1.19,2.66,2.67-1.19,2.67-2.66,2.67c-1.47,0-2.66-1.19-2.66-2.67Z"/>
          <path class="cls-15" d="M181.61,342.81c0-1.47,1.19-2.67,2.66-2.67s2.66,1.19,2.66,2.67-1.19,2.67-2.66,2.67c-1.47,0-2.66-1.19-2.66-2.67Z"/>
          <path class="cls-15" d="M167.84,342.81c0-1.47,1.19-2.67,2.66-2.67s2.66,1.19,2.66,2.67-1.19,2.67-2.66,2.67c-1.47,0-2.66-1.19-2.66-2.67Z"/>
          <circle class="cls-15" cx="156.74" cy="342.81" r="2.67"/>
          <circle class="cls-15" cx="142.97" cy="342.81" r="2.67"/>
          <circle class="cls-15" cx="129.2" cy="342.81" r="2.67" transform="translate(-221.91 447.39) rotate(-85.93)"/>
        </g>
      </g>
      <g class="cls-8">
        <path class="cls-10" d="M27.35,340.51l-49.02,41.88v131.94h174.67v-107.65c0-6.27-2.16-12.34-6.11-17.2l-39.83-48.98H27.35Z"/>
      </g>
      <g class="cls-13">
        <g>
          <circle class="cls-15" cx="140.09" cy="89.55" r="2.56"/>
          <path class="cls-15" d="M124.28,89.55c0-1.42,1.15-2.56,2.56-2.56s2.56,1.15,2.56,2.56-1.15,2.56-2.56,2.56-2.56-1.15-2.56-2.56Z"/>
          <path class="cls-15" d="M111.04,89.55c0-1.42,1.15-2.56,2.56-2.56s2.56,1.15,2.56,2.56-1.15,2.56-2.56,2.56-2.56-1.15-2.56-2.56Z"/>
          <circle class="cls-15" cx="100.36" cy="89.55" r="2.56"/>
          <circle class="cls-15" cx="87.12" cy="89.55" r="2.56"/>
          <path class="cls-15" d="M71.32,89.55c0-1.42,1.15-2.56,2.56-2.56s2.56,1.15,2.56,2.56-1.15,2.56-2.56,2.56-2.56-1.15-2.56-2.56Z"/>
          <path class="cls-15" d="M58.08,89.55c0-1.42,1.15-2.56,2.56-2.56s2.56,1.15,2.56,2.56-1.15,2.56-2.56,2.56-2.56-1.15-2.56-2.56Z"/>
          <circle class="cls-15" cx="47.4" cy="89.55" r="2.56"/>
          <circle class="cls-15" cx="34.15" cy="89.55" r="2.56"/>
          <circle class="cls-15" cx="140.09" cy="77.71" r="2.56"/>
          <path class="cls-15" d="M124.28,77.71c0-1.42,1.15-2.56,2.56-2.56s2.56,1.15,2.56,2.56-1.15,2.56-2.56,2.56c-1.42,0-2.56-1.15-2.56-2.56Z"/>
          <path class="cls-15" d="M111.04,77.71c0-1.42,1.15-2.56,2.56-2.56s2.56,1.15,2.56,2.56-1.15,2.56-2.56,2.56c-1.42,0-2.56-1.15-2.56-2.56Z"/>
          <circle class="cls-15" cx="100.36" cy="77.71" r="2.56"/>
          <circle class="cls-15" cx="87.12" cy="77.71" r="2.56"/>
          <path class="cls-15" d="M71.32,77.71c0-1.42,1.15-2.56,2.56-2.56s2.56,1.15,2.56,2.56-1.15,2.56-2.56,2.56c-1.42,0-2.56-1.15-2.56-2.56Z"/>
          <path class="cls-15" d="M58.08,77.71c0-1.42,1.15-2.56,2.56-2.56s2.56,1.15,2.56,2.56-1.15,2.56-2.56,2.56c-1.42,0-2.56-1.15-2.56-2.56Z"/>
          <circle class="cls-15" cx="47.4" cy="77.71" r="2.56"/>
          <circle class="cls-15" cx="34.15" cy="77.71" r="2.56"/>
          <path class="cls-15" d="M137.53,65.88c0-1.42,1.15-2.56,2.56-2.56s2.56,1.15,2.56,2.56-1.15,2.56-2.56,2.56-2.56-1.15-2.56-2.56Z"/>
          <path class="cls-15" d="M124.28,65.88c0-1.42,1.15-2.56,2.56-2.56s2.56,1.15,2.56,2.56-1.15,2.56-2.56,2.56-2.56-1.15-2.56-2.56Z"/>
          <path class="cls-15" d="M111.04,65.88c0-1.42,1.15-2.56,2.56-2.56s2.56,1.15,2.56,2.56-1.15,2.56-2.56,2.56-2.56-1.15-2.56-2.56Z"/>
          <path class="cls-15" d="M97.8,65.88c0-1.42,1.15-2.56,2.56-2.56s2.56,1.15,2.56,2.56-1.15,2.56-2.56,2.56-2.56-1.15-2.56-2.56Z"/>
          <path class="cls-15" d="M84.56,65.88c0-1.42,1.15-2.56,2.56-2.56s2.56,1.15,2.56,2.56-1.15,2.56-2.56,2.56-2.56-1.15-2.56-2.56Z"/>
          <path class="cls-15" d="M71.32,65.88c0-1.42,1.15-2.56,2.56-2.56s2.56,1.15,2.56,2.56-1.15,2.56-2.56,2.56-2.56-1.15-2.56-2.56Z"/>
          <path class="cls-15" d="M58.08,65.88c0-1.42,1.15-2.56,2.56-2.56s2.56,1.15,2.56,2.56-1.15,2.56-2.56,2.56-2.56-1.15-2.56-2.56Z"/>
          <path class="cls-15" d="M44.83,65.88c0-1.42,1.15-2.56,2.56-2.56s2.56,1.15,2.56,2.56-1.15,2.56-2.56,2.56-2.56-1.15-2.56-2.56Z"/>
          <path class="cls-15" d="M31.59,65.88c0-1.42,1.15-2.56,2.56-2.56s2.56,1.15,2.56,2.56-1.15,2.56-2.56,2.56-2.56-1.15-2.56-2.56Z"/>
          <circle class="cls-15" cx="140.09" cy="54.04" r="2.56"/>
          <path class="cls-15" d="M124.28,54.04c0-1.42,1.15-2.56,2.56-2.56s2.56,1.15,2.56,2.56-1.15,2.56-2.56,2.56-2.56-1.15-2.56-2.56Z"/>
          <path class="cls-15" d="M111.04,54.04c0-1.42,1.15-2.56,2.56-2.56s2.56,1.15,2.56,2.56-1.15,2.56-2.56,2.56-2.56-1.15-2.56-2.56Z"/>
          <circle class="cls-15" cx="100.36" cy="54.04" r="2.56"/>
          <circle class="cls-15" cx="87.12" cy="54.04" r="2.56"/>
          <path class="cls-15" d="M71.32,54.04c0-1.42,1.15-2.56,2.56-2.56s2.56,1.15,2.56,2.56-1.15,2.56-2.56,2.56-2.56-1.15-2.56-2.56Z"/>
          <path class="cls-15" d="M58.08,54.04c0-1.42,1.15-2.56,2.56-2.56s2.56,1.15,2.56,2.56-1.15,2.56-2.56,2.56-2.56-1.15-2.56-2.56Z"/>
          <circle class="cls-15" cx="47.4" cy="54.04" r="2.56"/>
          <circle class="cls-15" cx="34.15" cy="54.04" r="2.56"/>
          <circle class="cls-15" cx="140.09" cy="42.21" r="2.56"/>
          <path class="cls-15" d="M124.28,42.21c0-1.42,1.15-2.56,2.56-2.56s2.56,1.15,2.56,2.56-1.15,2.56-2.56,2.56-2.56-1.15-2.56-2.56Z"/>
          <path class="cls-15" d="M111.04,42.21c0-1.42,1.15-2.56,2.56-2.56s2.56,1.15,2.56,2.56-1.15,2.56-2.56,2.56-2.56-1.15-2.56-2.56Z"/>
          <circle class="cls-15" cx="100.36" cy="42.21" r="2.56"/>
          <circle class="cls-15" cx="87.12" cy="42.21" r="2.56"/>
          <path class="cls-15" d="M71.32,42.21c0-1.42,1.15-2.56,2.56-2.56s2.56,1.15,2.56,2.56-1.15,2.56-2.56,2.56-2.56-1.15-2.56-2.56Z"/>
          <path class="cls-15" d="M58.08,42.21c0-1.42,1.15-2.56,2.56-2.56s2.56,1.15,2.56,2.56-1.15,2.56-2.56,2.56-2.56-1.15-2.56-2.56Z"/>
          <circle class="cls-15" cx="47.4" cy="42.21" r="2.56"/>
          <circle class="cls-15" cx="34.15" cy="42.21" r="2.56"/>
          <path class="cls-15" d="M137.53,30.37c0-1.42,1.15-2.56,2.56-2.56s2.56,1.15,2.56,2.56-1.15,2.56-2.56,2.56-2.56-1.15-2.56-2.56Z"/>
          <path class="cls-15" d="M124.28,30.37c0-1.42,1.15-2.56,2.56-2.56s2.56,1.15,2.56,2.56-1.15,2.56-2.56,2.56-2.56-1.15-2.56-2.56Z"/>
          <path class="cls-15" d="M111.04,30.37c0-1.42,1.15-2.56,2.56-2.56s2.56,1.15,2.56,2.56-1.15,2.56-2.56,2.56-2.56-1.15-2.56-2.56Z"/>
          <path class="cls-15" d="M97.8,30.37c0-1.42,1.15-2.56,2.56-2.56s2.56,1.15,2.56,2.56-1.15,2.56-2.56,2.56-2.56-1.15-2.56-2.56Z"/>
          <path class="cls-15" d="M84.56,30.37c0-1.42,1.15-2.56,2.56-2.56s2.56,1.15,2.56,2.56-1.15,2.56-2.56,2.56-2.56-1.15-2.56-2.56Z"/>
          <path class="cls-15" d="M71.32,30.37c0-1.42,1.15-2.56,2.56-2.56s2.56,1.15,2.56,2.56-1.15,2.56-2.56,2.56-2.56-1.15-2.56-2.56Z"/>
          <path class="cls-15" d="M58.08,30.37c0-1.42,1.15-2.56,2.56-2.56s2.56,1.15,2.56,2.56-1.15,2.56-2.56,2.56-2.56-1.15-2.56-2.56Z"/>
          <path class="cls-15" d="M44.83,30.37c0-1.42,1.15-2.56,2.56-2.56s2.56,1.15,2.56,2.56-1.15,2.56-2.56,2.56-2.56-1.15-2.56-2.56Z"/>
          <path class="cls-15" d="M31.59,30.37c0-1.42,1.15-2.56,2.56-2.56s2.56,1.15,2.56,2.56-1.15,2.56-2.56,2.56-2.56-1.15-2.56-2.56Z"/>
        </g>
      </g>
      <g class="cls-1">
        <path class="cls-18" d="M60.93,364.76h-14.46c-21.4,0-38.75,17.35-38.75,38.75v101.33h91.97v-101.33c0-21.4-17.35-38.75-38.75-38.75Z"/>
      </g>
      <g class="cls-2">
        <g>
          <path class="cls-19" d="M27.23,295.45v44.72s33.3,24.91,79.71,0v-88.68H27.23v43.96Z"/>
          <path class="cls-9" d="M106.94,291.87l-67.72-32.07s27.5,47.77,67.72,54.15"/>
          <g>
            <path class="cls-3" d="M195.62,142.93l-9.02,60.34,10.71,20.76c1.5,2.9.02,6.46-3.1,7.44l-12.41,3.9-8.01,53.54c-1.15,7.67-8.01,13.15-15.74,12.57l-74.81-5.61c-3.37-.25-6.56-1.63-9.04-3.92l-55.94-51.42,3.99-83.7,173.38-13.9Z"/>
            <path class="cls-10" d="M15.26,106.42l186.74-44.02c9.75-2.3,16.8,9.14,10.37,16.82h0c-4.16,4.96-.48,12.5,5.99,12.28l20.57-.72c6.86-.24,10.39,8.11,5.44,12.86l-37.24,35.77c-1.02.98-2.29,1.65-3.68,1.93l-118.34,24.23c-3.53.72-6.04,3.86-5.98,7.46l.75,42.98c.07,4.18-3.29,7.61-7.48,7.61h0c-3.93,0-7.2-3.03-7.46-6.95-.72-11.03-4.41-31.46-21.8-32.9-22.43-1.87-23.82,51.51-4.99,65.52,2.35,1.75,3.45,4.71,2.83,7.57l-7.15,32.77c-1.41,6.46-9.91,8.05-13.55,2.53-14.72-22.37-41.52-68.52-49.81-118.77-5.05-30.58,14.58-59.83,44.76-66.94Z"/>
            <path class="cls-10" d="M135.7,202.16c.16-2.18.78-4.28,1.54-6.35.79-2.05,1.85-4.02,3.16-5.87,1.32-1.84,2.95-3.53,4.88-4.91,1.93-1.38,4.19-2.4,6.57-2.91,2.39-.49,4.86-.47,7.18,0,1.13.29,2.29.53,3.35,1,.53.22,1.08.4,1.59.66l1.5.79c3.95,2.19,7.15,5.25,9.68,8.76-3.88-1.93-7.54-3.93-11.3-5.18-1.87-.66-3.74-1.09-5.58-1.35-1.84-.21-3.65-.15-5.39.21-3.48.7-6.68,2.73-9.5,5.47-2.83,2.74-5.31,6.06-7.68,9.66Z"/>
          </g>
        </g>
      </g>
      <g class="cls-11">
        <g>
          <path class="cls-16" d="M172.41,268.46l-.76-3.19c-1.04-4.37-5.47-7.09-9.83-6.05l-23.38,5.58c-4.14.99-6.8,5.02-6.17,9.17l-13.25,2.47-60.14-36.73c-1.85-1.13-4.25-.54-5.38,1.3-1.13,1.84-.54,4.25,1.3,5.38l61.42,37.51c.62.38,1.32.57,2.04.57.24,0,.48-.02.72-.07l16.06-3c1.94,2.13,4.95,3.18,7.94,2.47l23.38-5.58c4.37-1.04,7.09-5.47,6.05-9.84Z"/>
          <path class="cls-4" d="M36.04,205.27l-1.24-3.71c-1.12-3.35-27.03-82.42-1.29-108.13,9.01-9,22.81-10.48,41-4.4l6.3,1.93-10.31,2.64-3.71-1.24c-15.15-5.06-21.01-.13-27.75,6.6-18.55,18.53-3.99,78.56,3.18,100.13l1.24,3.71-7.42,2.47Z"/>
          <circle class="cls-17" cx="43.74" cy="222.74" r="29.53"/>
          <circle class="cls-4" cx="43.74" cy="222.74" r="22.4"/>
          <polyline class="cls-6" points="56.48 238.77 117.9 276.28 152.04 269.91"/>
          <g>
            <path class="cls-12" d="M161.45,254.95l-23.38,5.58c-4.37,1.04-7.09,5.47-6.05,9.83l.76,3.19c1.04,4.37,5.47,7.09,9.83,6.05l23.38-5.58c4.37-1.04,7.09-5.47,6.05-9.83l-.76-3.19c-1.04-4.37-5.47-7.09-9.83-6.05Z"/>
            <g>
              <g>
                <path class="cls-4" d="M137.53,264.83c-.04.51-.49.88-.99.83-.51-.04-.88-.49-.84-.99s.49-.88.99-.83c.51.04.88.49.84.99Z"/>
                <path class="cls-4" d="M142.91,263.49c-.04.51-.49.88-.99.83-.51-.04-.88-.49-.84-.99.04-.51.49-.88.99-.83.51.04.88.49.84.99Z"/>
                <path class="cls-4" d="M148.29,262.14c-.04.51-.49.88-.99.83-.51-.04-.88-.49-.84-.99.04-.51.49-.88.99-.83.51.04.88.49.84.99Z"/>
                <path class="cls-4" d="M153.66,260.8c-.04.51-.49.88-.99.83-.51-.04-.88-.49-.84-.99.04-.51.49-.88.99-.83.51.04.88.49.84.99Z"/>
                <path class="cls-4" d="M159.04,259.45c-.04.51-.49.88-.99.83-.51-.04-.88-.49-.84-.99.04-.51.49-.88.99-.83.51.04.88.49.84.99Z"/>
                <path class="cls-4" d="M164.42,258.11c-.04.51-.49.88-.99.83-.51-.04-.88-.49-.84-.99.04-.51.49-.88.99-.83.5.04.88.49.83.99Z"/>
              </g>
              <g>
                <path class="cls-4" d="M141.13,268.19c-.04.51-.49.88-.99.83-.51-.04-.88-.49-.84-.99.04-.51.49-.88.99-.83.51.04.88.49.84.99Z"/>
                <path class="cls-4" d="M146.51,266.85c-.04.51-.49.88-.99.83s-.88-.49-.84-.99c.04-.51.49-.88.99-.83.51.04.88.49.84.99Z"/>
                <path class="cls-4" d="M151.89,265.51c-.04.51-.49.88-.99.83-.51-.04-.88-.49-.84-.99.04-.51.49-.88.99-.83.5.04.88.49.83.99Z"/>
                <path class="cls-4" d="M157.27,264.16c-.04.51-.49.88-.99.83-.51-.04-.88-.49-.84-.99.04-.51.49-.88.99-.83.51.04.88.49.84.99Z"/>
                <path class="cls-4" d="M162.65,262.82c-.04.51-.49.88-.99.83-.51-.04-.88-.49-.84-.99.04-.51.49-.88.99-.83.51.04.88.49.84.99Z"/>
                <path class="cls-4" d="M168.03,261.47c-.04.51-.49.88-.99.83-.51-.04-.88-.49-.84-.99.04-.51.49-.88.99-.83.51.04.88.49.84.99Z"/>
              </g>
              <g>
                <path class="cls-4" d="M139.5,273.15c-.04.51-.49.88-.99.83-.51-.04-.88-.49-.84-.99.04-.51.49-.88.99-.83.51.04.88.49.84.99Z"/>
                <path class="cls-4" d="M144.88,271.8c-.04.51-.49.88-.99.83-.51-.04-.88-.49-.84-.99.04-.51.49-.88.99-.83.51.04.88.49.84.99Z"/>
                <path class="cls-4" d="M150.26,270.46c-.04.51-.49.88-.99.83-.51-.04-.88-.49-.84-.99.04-.51.49-.88.99-.83.51.04.88.49.84.99Z"/>
                <path class="cls-4" d="M155.64,269.11c-.04.51-.49.88-.99.83-.51-.04-.88-.49-.84-.99.04-.51.49-.88.99-.83.5.04.88.49.83.99Z"/>
                <path class="cls-4" d="M161.02,267.77c-.04.51-.49.88-.99.83-.51-.04-.88-.49-.84-.99.04-.51.49-.88.99-.83.51.04.88.49.84.99Z"/>
                <path class="cls-4" d="M166.4,266.42c-.04.51-.49.88-.99.83-.51-.04-.88-.49-.84-.99.04-.51.49-.88.99-.83.51.04.88.49.84.99Z"/>
              </g>
              <g>
                <path class="cls-4" d="M143.11,276.46c-.04.51-.49.88-.99.83-.51-.04-.88-.49-.84-.99.04-.51.49-.88.99-.83.51.04.88.49.84.99Z"/>
                <path class="cls-4" d="M148.49,275.11c-.04.51-.49.88-.99.83-.51-.04-.88-.49-.84-.99.04-.51.49-.88.99-.83.51.04.88.49.84.99Z"/>
                <path class="cls-4" d="M153.87,273.77c-.04.51-.49.88-.99.83-.51-.04-.88-.49-.84-.99s.49-.88.99-.83c.51.04.88.49.84.99Z"/>
                <path class="cls-4" d="M159.25,272.43c-.04.51-.49.88-.99.83-.51-.04-.88-.49-.84-.99s.49-.88.99-.83c.51.04.88.49.84.99Z"/>
                <path class="cls-4" d="M164.63,271.08c-.04.51-.49.88-.99.83-.51-.04-.88-.49-.84-.99.04-.51.49-.88.99-.83.5.04.88.49.83.99Z"/>
                <path class="cls-4" d="M170.01,269.74c-.04.51-.49.88-.99.83-.51-.04-.88-.49-.84-.99.04-.51.49-.88.99-.83.51.04.88.49.84.99Z"/>
              </g>
            </g>
          </g>
        </g>
      </g>
      <g class="cls-14">
        <path class="cls-7" d="M27.67,229s-2.66-18.76,12.67-22"/>
      </g>
    </g>
  </g>
</svg>